<svg xmlns="http://www.w3.org/2000/svg" viewBox="0 0 276.12 207.24"><defs><style>.cls-1{fill:#002a3f;}.cls-2{fill:#da242a;}.cls-3{fill:#ff7422;}.cls-4{fill:#ffb74d;}.cls-5{fill:#e8deb1;}</style></defs><g id="Layer_2" data-name="Layer 2"><g id="Layer_1-2" data-name="Layer 1"><rect class="cls-1" x="3.32" y="124.24" width="52" height="83"/><rect class="cls-2" x="56.32" y="124.24" width="52" height="83"/><rect class="cls-3" x="109.32" y="124.24" width="52" height="83"/><rect class="cls-4" x="163.32" y="124.24" width="52" height="83"/><rect class="cls-5" x="217.32" y="124.24" width="52" height="83"/><path d="M77.73,28.39l-15.08,4.1c-2.77-12.09-10-18.63-23.73-18.63-15.3,0-23.62,13.31-23.62,26.84,0,17.07,10,29.6,25.06,29.6,12,0,19.52-8.65,22.4-17.85l15,2.88c-4.1,17-17.3,28.94-37.15,28.94C15.86,84.27,0,66.53,0,42.8,0,16.3,15.41.11,41.14.11,58.21.11,73.3,8.09,77.73,28.39Z"/><path d="M87.05,83.16V0H99.91V32.27c3.88-5,10.31-7.65,18.08-7.65,13.19,0,23.5,9.87,23.5,23.84v34.7H128.74V50.56c0-8.2-5.88-14.08-13.53-14.08-6.54,0-15.3,4.88-15.3,10v36.7Z"/><path d="M188.62,45.91c0-7.21-5.32-9.65-12.08-9.65-7.32,0-11.09,3.33-13.31,6.65l-7.87-8.31c2.1-4.33,9.75-10.09,20.51-10.09,17.85,0,25.17,7.09,25.17,25.83V70.08c0,3.33,2.66,5.77,6.65,5.77l-1.88,8.09c-6.76,0-11-2.66-13-6.21-3.33,3.77-8.1,6.65-18.41,6.65-16.3,0-22.84-7.31-22.84-17.85C151.59,44.8,181.53,50.45,188.62,45.91Zm0,20.07V55.44c-7.76,3-24-.11-24,11.09,0,3.33,2,6.76,11,6.76C181.3,73.29,186.52,71.63,188.62,66Z"/><path d="M214,83.16V26.61l8-1.33,3,10.09c3.21-5.43,8.87-9.87,17.74-9.87,4.77,0,9.2.34,12,2.89l-1.66,12.53a17.73,17.73,0,0,0-10-3c-8.54,0-16.19,6.21-16.19,14.42V83.16Z"/><path d="M276.12,76.07a7,7,0,0,1-7.32,7.32c-4.33,0-7.21-3-7.21-7.32,0-4.55,2.88-7.32,7.21-7.32S276.12,71.52,276.12,76.07Z"/><path d="M68.47,111.74V98.25h5.76c3.57,0,5.36,1.11,5.36,3.55a2.73,2.73,0,0,1-1.77,2.75,3.25,3.25,0,0,1,2.62,3.09c0,2.35-1.59,4.1-4.47,4.1Zm2.47-11.38v3.51H74.2c2,0,3-.26,3-1.88,0-1.13-.77-1.63-2.62-1.63Zm0,9.29h4.75c1.3,0,2.37-.57,2.37-1.88,0-1.53-1.46-1.87-2.57-1.87H70.94Z"/><path d="M84.49,98.25v7.69c0,2.72,1.48,3.86,3.31,3.86s3.31-1.14,3.31-3.86V98.25h2.47v7.36c0,3.27-1.37,6.54-5.78,6.54S82,108.88,82,105.61V98.25Z"/><path d="M96,98.25h6.54c2.83,0,5.27,1.17,5.27,3.81s-2.09,3.51-4.42,3.79a59.3,59.3,0,0,1,4.07,5.89h-3a16.52,16.52,0,0,0-3.57-5.5h-2.4v5.5H96Zm2.46,2.15v3.69h3.69c1.7,0,3.38-.22,3.38-1.83s-1-1.86-3.32-1.86Z"/><path d="M108.78,104.72c0-4.53,2.31-6.82,6.67-6.82,2.86,0,5.15,1.31,5.85,4.7l-2.55.77c-.48-2-1.42-3.18-3.64-3.18-2.75,0-3.8,2-3.8,4.46a5,5,0,0,0,5.12,5,5.64,5.64,0,0,0,2.25-.39v-3.47h2.5v3.42l.7.35v.4c-1.3,1.3-2.61,1.91-5.77,1.91C111.84,111.91,108.78,109.06,108.78,104.72Z"/><path d="M133.32,111.74h-9.94V98.25h10.07l-.26,2.28h-7.34v2.56h5.77l-.24,2.15h-5.53v4.28h7.71Z"/><path d="M135.21,98.25h6.54c2.82,0,5.26,1.17,5.26,3.81s-2.09,3.51-4.41,3.79a59.2,59.2,0,0,1,4.06,5.89h-3a16.36,16.36,0,0,0-3.57-5.5h-2.4v5.5h-2.45Zm2.45,2.15v3.69h3.7c1.7,0,3.38-.22,3.38-1.83s-1-1.86-3.33-1.86Z"/><path d="M155.22,111.74V98.25H161c3.56,0,5.36,1.11,5.36,3.55a2.74,2.74,0,0,1-1.78,2.75,3.25,3.25,0,0,1,2.62,3.09c0,2.35-1.58,4.1-4.47,4.1Zm2.48-11.38v3.51H161c2,0,3.05-.26,3.05-1.88,0-1.13-.78-1.63-2.63-1.63Zm0,9.29h4.75c1.29,0,2.36-.57,2.36-1.88,0-1.53-1.46-1.87-2.57-1.87H157.7Z"/><path d="M178.4,111.74h-9.58V98.25h2.48v11.27h7.34Z"/><path d="M193,105a6.85,6.85,0,1,1-13.69,0A6.85,6.85,0,1,1,193,105Zm-11.14,0c0,2.42,1.7,4.78,4.28,4.78s4.27-2.36,4.27-4.78c0-2.63-1.53-4.86-4.27-4.86S181.82,102.39,181.82,105Z"/><path d="M194,104.72c0-4.53,2.31-6.82,6.67-6.82,2.86,0,5.15,1.31,5.86,4.7l-2.55.77c-.48-2-1.43-3.18-3.64-3.18-2.76,0-3.81,2-3.81,4.46a5,5,0,0,0,5.12,5,5.64,5.64,0,0,0,2.25-.39v-3.47h2.5v3.42l.7.35v.4c-1.29,1.3-2.61,1.91-5.77,1.91C197,111.91,194,109.06,194,104.72Z"/></g></g></svg>